<?xml version="1.0" encoding="utf-8"?>
<!-- Generator: Adobe Illustrator 24.0.3, SVG Export Plug-In . SVG Version: 6.00 Build 0)  -->
<svg version="1.1" id="Layer_1" xmlns="http://www.w3.org/2000/svg" xmlns:xlink="http://www.w3.org/1999/xlink" x="0px" y="0px"
	 viewBox="0 0 58.2 52.1" style="enable-background:new 0 0 58.2 52.1;" xml:space="preserve">
<style type="text/css">
	.st0{fill:#FFFFFF;}
</style>
<title>arrow-right</title>
<g id="a">
	<path class="st0" d="M58.2,26.1L58,25.2c-0.1-0.1-0.1-0.1-0.2-0.2L38.3,0.8c-0.2-0.3-0.5-0.5-0.8-0.7C37.2,0,36.8,0,36.5,0
		c-0.3,0.1-0.7,0.2-0.9,0.4C35.3,0.7,35.1,1,35,1.3c-0.1,0.3-0.2,0.7-0.1,1c0.1,0.4,0.2,0.7,0.4,1l16.7,20.7H1.9
		c-0.5,0-1,0.2-1.4,0.6C0.2,25,0,25.5,0,26.1c0,0.5,0.2,1.1,0.6,1.5c0.4,0.4,0.8,0.6,1.4,0.5h50.1L35.3,48.9
		c-0.3,0.4-0.5,0.9-0.4,1.4c0,0.5,0.3,1,0.7,1.3c0.4,0.3,0.9,0.5,1.5,0.5c0.5,0,1-0.3,1.3-0.7l19.3-24.1l0.1-0.1
		c0-0.1,0.1-0.2,0.2-0.3v-0.1L58.2,26.1z"/>
</g>
</svg>
