<?xml version="1.0" encoding="utf-8"?>
<!-- Generator: Adobe Illustrator 24.0.3, SVG Export Plug-In . SVG Version: 6.00 Build 0)  -->
<svg version="1.1" id="Layer_1" xmlns="http://www.w3.org/2000/svg" xmlns:xlink="http://www.w3.org/1999/xlink" x="0px" y="0px"
	 viewBox="0 0 58.2 52.1" style="enable-background:new 0 0 58.2 52.1;" xml:space="preserve">
<style type="text/css">
	.st0{fill:#FFFFFF;}
</style>
<title>arrow-left</title>
<g id="a">
	<path class="st0" d="M0,26l0.2,0.9l0.2,0.2l19.5,24.2c0.2,0.3,0.5,0.5,0.8,0.7c0.3,0.1,0.7,0.1,1,0.1c0.3-0.1,0.7-0.2,0.9-0.5
		c0.3-0.2,0.5-0.5,0.6-0.8c0.2-0.3,0.2-0.7,0.1-1c-0.1-0.4-0.2-0.7-0.4-1L6.1,28h50.1c0.5,0,1-0.2,1.4-0.6c0.4-0.4,0.6-0.9,0.6-1.4
		c0-0.5-0.2-1.1-0.6-1.4c-0.4-0.4-0.8-0.6-1.4-0.5H6.1L22.8,3.2c0.3-0.4,0.5-0.9,0.4-1.4c0-0.5-0.3-1-0.7-1.3
		C22.2,0.2,21.7,0,21.1,0c-0.5,0-1,0.3-1.3,0.7l-19.4,24l-0.1,0.1c0,0.1-0.1,0.2-0.2,0.3v0.1L0,26z"/>
</g>
</svg>
