<?xml version="1.0" encoding="utf-8"?>
<!-- Generator: Adobe Illustrator 24.0.3, SVG Export Plug-In . SVG Version: 6.00 Build 0)  -->
<svg version="1.1" id="Layer_1" xmlns="http://www.w3.org/2000/svg" xmlns:xlink="http://www.w3.org/1999/xlink" x="0px" y="0px"
	 viewBox="0 0 52.1 60.2" style="enable-background:new 0 0 52.1 60.2;" xml:space="preserve">
<style type="text/css">
	.st0{fill:#FFFFFF;}
</style>
<title>arrow-up</title>
<g id="a">
	<path class="st0" d="M26.1,0l-0.9,0.2L25,0.4L0.8,20.5c-0.3,0.2-0.5,0.5-0.6,0.9C0,21.7,0,22,0,22.4c0.1,0.4,0.2,0.7,0.5,1
		C0.7,23.6,1,23.8,1.3,24c0.3,0.2,0.7,0.2,1,0.1c0.4-0.1,0.7-0.2,1-0.5L24.1,6.3v51.8c0,1.1,0.9,2,2,2c0.5,0,1.1-0.2,1.5-0.6
		c0.4-0.4,0.6-0.9,0.5-1.4V6.3l20.8,17.3c0.4,0.3,0.9,0.5,1.4,0.5c0.5-0.1,1-0.3,1.3-0.8c0.3-0.4,0.5-1,0.5-1.5c0-0.5-0.3-1-0.7-1.4
		l-24-20l-0.2-0.2c-0.1,0-0.2-0.1-0.3-0.2l-0.1,0L26.1,0z"/>
</g>
</svg>
