<?xml version="1.0" encoding="utf-8"?>
<!-- Generator: Adobe Illustrator 24.0.3, SVG Export Plug-In . SVG Version: 6.00 Build 0)  -->
<svg version="1.1" id="Layer_1" xmlns="http://www.w3.org/2000/svg" xmlns:xlink="http://www.w3.org/1999/xlink" x="0px" y="0px"
	 viewBox="0 0 52.1 58.2" style="enable-background:new 0 0 52.1 58.2;" xml:space="preserve">
<style type="text/css">
	.st0{fill:#FFFFFF;}
</style>
<title>arrow-down</title>
<g id="a">
	<path class="st0" d="M26,58.1l0.9-0.2c0.1-0.1,0.1-0.1,0.2-0.2l24.2-19.5c0.3-0.2,0.5-0.5,0.7-0.8c0.1-0.3,0.1-0.7,0.1-1
		c-0.1-0.3-0.2-0.7-0.5-0.9c-0.2-0.3-0.5-0.5-0.8-0.6c-0.3-0.1-0.7-0.2-1-0.1c-0.4,0.1-0.7,0.2-1,0.4L28,52.1V1.9
		c0-0.5-0.2-1-0.6-1.4C27.1,0.2,26.6,0,26,0c-0.6,0-1.1,0.2-1.5,0.6C24.2,0.9,24,1.4,24,1.9v50.1L3.2,35.3c-0.4-0.3-0.9-0.5-1.4-0.4
		c-0.5,0-1,0.3-1.3,0.7C0.2,36,0,36.5,0,37c0,0.5,0.3,1,0.7,1.3l24,19.3l0.1,0.1c0.1,0,0.2,0.1,0.3,0.2h0.1L26,58.1z"/>
</g>
</svg>
