<svg id="ICONS" xmlns="http://www.w3.org/2000/svg" viewBox="0 0 120 120">
   <title>DialexaRoomIcons_White</title>
   <g id="ROOM_ICONS" data-name="ROOM ICONS">
      <g id="Asgard_FINAL" data-name="Asgard FINAL">
         <rect x="48.96" y="23.52" width="59.63" height="35.38" rx="1" transform="translate(52.21 -43.63) rotate(45)" fill="none" stroke="#fff" stroke-miterlimit="10" stroke-width="2"></rect>
         <rect x="6.56" y="71.64" width="69.95" height="13.64" rx="1" transform="translate(-43.31 52.35) rotate(-45)" fill="none" stroke="#fff" stroke-miterlimit="10" stroke-width="2"></rect>
         <rect x="7.96" y="97.52" width="10.36" height="18.66" rx="1" transform="translate(-71.71 40.58) rotate(-45)" fill="none" stroke="#fff" stroke-miterlimit="10" stroke-width="2"></rect>
         <rect x="42.22" y="23.52" width="73.1" height="35.38" rx="1" transform="translate(52.21 -43.63) rotate(45)" fill="none" stroke="#fff" stroke-miterlimit="10" stroke-width="2"></rect>
         <rect x="90.6" y="20.23" width="4.67" height="13.64" rx="1" transform="translate(8.09 73.64) rotate(-45)" fill="none" stroke="#fff" stroke-miterlimit="10" stroke-width="2"></rect>
         <line x1="58.41" y1="51.94" x2="65.72" y2="63.91" fill="none" stroke="#fff" stroke-miterlimit="10" stroke-width="2"></line>
         <line x1="53.04" y1="57.3" x2="60.35" y2="69.28" fill="none" stroke="#fff" stroke-miterlimit="10" stroke-width="2"></line>
         <line x1="47.67" y1="62.67" x2="54.98" y2="74.65" fill="none" stroke="#fff" stroke-miterlimit="10" stroke-width="2"></line>
         <line x1="42.3" y1="68.04" x2="49.62" y2="80.02" fill="none" stroke="#fff" stroke-miterlimit="10" stroke-width="2"></line>
         <line x1="37.17" y1="73.18" x2="44.48" y2="85.15" fill="none" stroke="#fff" stroke-miterlimit="10" stroke-width="2"></line>
         <line x1="31.94" y1="78.41" x2="39.25" y2="90.38" fill="none" stroke="#fff" stroke-miterlimit="10" stroke-width="2"></line>
         <line x1="26.57" y1="83.77" x2="33.88" y2="95.75" fill="none" stroke="#fff" stroke-miterlimit="10" stroke-width="2"></line>
         <line x1="21.25" y1="89.1" x2="28.56" y2="101.07" fill="none" stroke="#fff" stroke-miterlimit="10" stroke-width="2"></line>
         <line x1="16.07" y1="94.27" x2="23.38" y2="106.25" fill="none" stroke="#fff" stroke-miterlimit="10" stroke-width="2"></line>
      </g>
   </g>
</svg>
