<svg id="ICONS" xmlns="http://www.w3.org/2000/svg" viewBox="0 0 120 120">
   <title>DialexaRoomIcons_White</title>
   <g id="ROOM_ICONS" data-name="ROOM ICONS">
      <g id="Atlantis_FINAL" data-name="Atlantis FINAL">
         <path d="M116.76,43.16a1.92,1.92,0,0,0-2-.47L90.34,50.92a1.94,1.94,0,0,0-1.22,2.44,1.92,1.92,0,0,0,1.22,1.23l5.19,1.75L92.3,59.61c-6.9,7-17.79,7.79-26.62,2.3l25.79-26.1L93.2,41A1.93,1.93,0,0,0,95,42.37h0A1.93,1.93,0,0,0,96.85,41L105,16.4A1.92,1.92,0,0,0,102.58,14L78.13,22.18a1.93,1.93,0,0,0-1.22,2.44,1.91,1.91,0,0,0,1.22,1.24l5.19,1.74-25.9,26c-5.45-8.9-4.61-19.88,2.3-26.85L63,23.49l1.73,5.24a1.91,1.91,0,0,0,1.82,1.32h0a1.91,1.91,0,0,0,1.82-1.32L76.5,4.09a2,2,0,0,0-1.22-2.45,1.93,1.93,0,0,0-1.21,0L49.61,9.85a1.94,1.94,0,0,0,0,3.68l5.21,1.74-3.1,3.12c-.06,0-.11.1-.17.15C40.27,29.93,39.33,48.3,49.1,61.93l-2.9,2.91-8.44,8.49L2.66,108.56a2,2,0,0,0-.56,1.37v5.81A1.93,1.93,0,0,0,4,117.68H9.78a1.93,1.93,0,0,0,1.36-.57l35-35.38,8.42-8.51L57.4,70.3a34.84,34.84,0,0,0,20.5,6.78,31.61,31.61,0,0,0,22.55-9.24c0-.06.1-.11.15-.18l3.09-3.12,1.74,5.25a1.92,1.92,0,0,0,1.82,1.32h0a1.91,1.91,0,0,0,1.82-1.32l8.14-24.64A1.94,1.94,0,0,0,116.76,43.16Z" fill="none" stroke="#fff" stroke-miterlimit="10" stroke-width="2"/>
         <line x1="28.22" y1="82.91" x2="36.62" y2="91.32" fill="none" stroke="#fff" stroke-miterlimit="10" stroke-width="2"/>
         <line x1="24.29" y1="86.85" x2="32.71" y2="95.27" fill="none" stroke="#fff" stroke-miterlimit="10" stroke-width="2"/>
         <line x1="20.37" y1="90.79" x2="28.81" y2="99.22" fill="none" stroke="#fff" stroke-miterlimit="10" stroke-width="2"/>
         <line x1="16.45" y1="94.72" x2="24.9" y2="103.18" fill="none" stroke="#fff" stroke-miterlimit="10" stroke-width="2"/>
         <line x1="12.53" y1="98.66" x2="21" y2="107.13" fill="none" stroke="#fff" stroke-miterlimit="10" stroke-width="2"/>
         <line x1="8.6" y1="102.6" x2="17.09" y2="111.08" fill="none" stroke="#fff" stroke-miterlimit="10" stroke-width="2"/>
      </g>
   </g>
</svg>