<svg id="ICONS" xmlns="http://www.w3.org/2000/svg" viewBox="0 0 120 120"><title>DialexaRoomIcons_White</title><g id="ROOM_ICONS" data-name="ROOM ICONS"><g id="Black_Hole_FINAL" data-name="Black Hole FINAL"><path d="M60,29A30.75,30.75,0,0,1,87.84,46.43" fill="none" stroke="#fff" stroke-miterlimit="10" stroke-width="2"/><path d="M33.23,44.5A30.9,30.9,0,0,1,50.35,30.58" fill="none" stroke="#fff" stroke-miterlimit="10" stroke-width="2"/><path d="M82.48,81.23h0A30.94,30.94,0,0,1,33,75" fill="none" stroke="#fff" stroke-miterlimit="10" stroke-width="2"/><path d="M88.71,71.54v0a31.12,31.12,0,0,1-3.11,5.8" fill="none" stroke="#fff" stroke-miterlimit="10" stroke-width="2"/><path d="M117.44,59.6h0L91.12,55.21A19,19,0,0,1,78.63,47,22.62,22.62,0,0,0,47.15,41.3,22.89,22.89,0,0,0,41.4,47a19,19,0,0,1-12.49,8.17L2.6,59.6a.36.36,0,0,0-.3.43.39.39,0,0,0,.3.3l26.32,4.39A19,19,0,0,1,41.4,72.88a22.62,22.62,0,0,0,37.23,0,19,19,0,0,1,12.49-8.16l26.32-4.39a.37.37,0,0,0,0-.73Z" fill="none" stroke="#fff" stroke-miterlimit="10" stroke-width="2"/><circle cx="60.02" cy="59.96" r="10.31" fill="none" stroke="#fff" stroke-miterlimit="10" stroke-width="2"/><circle cx="93.01" cy="95.01" r="6.19" fill="none" stroke="#fff" stroke-miterlimit="10" stroke-width="2"/><circle cx="29.09" cy="22.85" r="8.25" fill="none" stroke="#fff" stroke-miterlimit="10" stroke-width="2"/></g></g></svg>