<svg id="ICONS" xmlns="http://www.w3.org/2000/svg" viewBox="0 0 120 120"><title>DialexaRoomIcons_White</title><g id="ROOM_ICONS" data-name="ROOM ICONS"><g id="Goondocks_FINAL" data-name="Goondocks FINAL"><path d="M58.15,85.68a3.19,3.19,0,0,1,3.67,0c1.32.91,2.74,1.59,2.33-.67-.29-1.54-1.91-3.74-3.44-5.53a.92.92,0,0,0-1.4,0c-1.53,1.79-3.15,4-3.44,5.53-.41,2.22,1,1.61,2.28.7Z" fill="none" stroke="#fff" stroke-miterlimit="10" stroke-width="2"/><path d="M81.85,52.21A7.84,7.84,0,1,0,89.69,60,7.82,7.82,0,0,0,81.85,52.21Z" fill="none" stroke="#fff" stroke-miterlimit="10" stroke-width="2"/><path d="M60,9.53A44.77,44.77,0,0,0,34.63,91.18,3.18,3.18,0,0,1,36.27,94v10.77c0,7.76,11.65,7.51,11.65,0v-2.82c0-3.51,6.39-3.88,6.39,0,0,7.76,11.65,7.54,11.65,0,.15-3.26,6.13-3.33,6.39,0v2.82c0,7.49,11.65,7.8,11.65,0v-11a3.19,3.19,0,0,1,1.37-2.62A44.76,44.76,0,0,0,60,9.53Z" fill="none" stroke="#fff" stroke-miterlimit="10" stroke-width="2"/><path d="M34.23,49.11a7.09,7.09,0,0,1,.78-.39c2.59-1.11,15.68-6,17.8,7.23,1.43,9-2.27,14.22-5.37,17a7,7,0,0,1-7.27,1.15C31.93,70.65,13.61,61,34.23,49.11Z" fill="none" stroke="#fff" stroke-miterlimit="10" stroke-width="2"/><line x1="51.64" y1="51.99" x2="70.64" y2="43.97" fill="none" stroke="#fff" stroke-miterlimit="10" stroke-width="2"/><line x1="24.78" y1="60.69" x2="16.16" y2="63.32" fill="none" stroke="#fff" stroke-miterlimit="10" stroke-width="2"/><path d="M26.83,24.24s23.47,23.64,77.3,22.5" fill="none" stroke="#fff" stroke-miterlimit="10" stroke-width="2"/><path d="M94.72,37a30.79,30.79,0,0,1,1.44,4.58" fill="none" stroke="#fff" stroke-miterlimit="10" stroke-width="2"/><path d="M76.88,19.36A32.69,32.69,0,0,1,93.15,33.73" fill="none" stroke="#fff" stroke-miterlimit="10" stroke-width="2"/></g></g></svg>