<svg id="ICONS" xmlns="http://www.w3.org/2000/svg" viewBox="0 0 120 120"><title>DialexaRoomIcons_White</title><g id="ROOM_ICONS" data-name="ROOM ICONS"><g id="Gotham_FINAL" data-name="Gotham FINAL"><path d="M39.41,81.88c7.56-2.8,17.19-6.59,19.07,5.9,5.68.32,9.76,4,9.56,11,7.31-5.74,13.76.44,18.12,10.56,9.4-13,1.76-29.71-2.13-34.27-13.13.59-20-1.24-25.95-4.5,4.05-3,5.22-5,6.22-9.14l-4.68,2c-1.56-2.55-2.45-3.55-5.22-4.39l.93-4.93c-3.63,1.66-5.41,2.89-8,7.68-4-5.58-7.19-11.76-8.61-25.09-8.2-4.68-25-5.67-34.39,3.75,11,2.83,18.19,8.13,13.51,16.34,6.88-1.4,11.47,2,12.73,7.25C43,63.81,41.15,73.93,39.41,81.88Z" fill="none" stroke="#fff" stroke-miterlimit="10" stroke-width="2" fill-rule="evenodd"/><g id="Clouds"><rect x="68.79" y="43.17" width="28.79" height="8.74" rx="3.41" fill="none" stroke="#fff" stroke-miterlimit="10" stroke-width="2"/><rect x="74.35" y="30.11" width="43.31" height="8.74" rx="3.41" fill="none" stroke="#fff" stroke-miterlimit="10" stroke-width="2"/></g><path d="M26.56,33.26A44.62,44.62,0,0,1,98.14,29.6" fill="none" stroke="#fff" stroke-miterlimit="10" stroke-width="2" fill-rule="evenodd"/><path d="M79.94,99.55A44.63,44.63,0,0,1,19.09,58c0-.46,0-.91,0-1.37" fill="none" stroke="#fff" stroke-miterlimit="10" stroke-width="2" fill-rule="evenodd"/><path d="M104,38.84a44.66,44.66,0,0,1-13.37,54.7" fill="none" stroke="#fff" stroke-miterlimit="10" stroke-width="2" fill-rule="evenodd"/></g></g></svg>