<svg id="ICONS" xmlns="http://www.w3.org/2000/svg" viewBox="0 0 120 120"><title>DialexaRoomIcons_White</title><g id="ROOM_ICONS" data-name="ROOM ICONS"><g id="The_Hatch_FINAL" data-name="The Hatch FINAL"><path d="M103.84,76.82H16.21L4.61,101.05a.76.76,0,0,0,.69,1.08H114.7a.76.76,0,0,0,.69-1.08Z" fill="none" stroke="#fff" stroke-miterlimit="10" stroke-width="2"/><path d="M103.86,15.24a.76.76,0,0,0-.76-.76H17a.76.76,0,0,0-.76.76V76.82h87.65Z" fill="none" stroke="#fff" stroke-miterlimit="10" stroke-width="2"/><rect x="23.23" y="21.33" width="54.62" height="48.65" rx="0.45" fill="none" stroke="#fff" stroke-miterlimit="10" stroke-width="2"/><line x1="85.35" y1="70.49" x2="91.68" y2="70.49" fill="none" stroke="#fff" stroke-miterlimit="10" stroke-width="2"/><line x1="85.35" y1="64.16" x2="91.68" y2="64.16" fill="none" stroke="#fff" stroke-miterlimit="10" stroke-width="2"/><line x1="85.35" y1="57.83" x2="91.68" y2="57.83" fill="none" stroke="#fff" stroke-miterlimit="10" stroke-width="2"/><line x1="85.35" y1="51.51" x2="91.68" y2="51.51" fill="none" stroke="#fff" stroke-miterlimit="10" stroke-width="2"/><line x1="85.35" y1="45.18" x2="91.68" y2="45.18" fill="none" stroke="#fff" stroke-miterlimit="10" stroke-width="2"/><circle cx="88.52" cy="36.16" r="3.16" fill="none" stroke="#fff" stroke-miterlimit="10" stroke-width="2"/><circle cx="88.52" cy="23.5" r="3.16" fill="none" stroke="#fff" stroke-miterlimit="10" stroke-width="2"/><line x1="98.01" y1="20.34" x2="98.01" y2="70.97" fill="none" stroke="#fff" stroke-miterlimit="10" stroke-width="2"/><path d="M104.74,95.81H15.89a.74.74,0,0,1-.78-1l3.94-11.6a1.54,1.54,0,0,1,1.34-1H99.93a1.58,1.58,0,0,1,1.36,1l4.21,11.6A.72.72,0,0,1,104.74,95.81ZM17.08,89h86.31M26.62,82.2,22.84,95.81M34.09,82.2l-2.9,13.61M41.56,82.2l-2,13.61M49,82.2,47.88,95.81M56.5,82.2l-.27,13.61M64,82.2l.6,13.61M71.44,82.2l1.48,13.61m6-13.61,2.35,13.61M86.38,82.2l3.23,13.61M93.85,82.2,98,95.81" fill="none" stroke="#fff" stroke-miterlimit="10" stroke-width="2"/><line x1="46.43" y1="40.8" x2="53.35" y2="40.8" fill="none" stroke="#fff" stroke-miterlimit="10" stroke-width="2"/><line x1="29.13" y1="31.51" x2="68.93" y2="31.51" fill="none" stroke="#fff" stroke-miterlimit="10" stroke-width="2"/><line x1="29.13" y1="36.16" x2="56.81" y2="36.16" fill="none" stroke="#fff" stroke-miterlimit="10" stroke-width="2"/><line x1="29.13" y1="40.8" x2="42.97" y2="40.8" fill="none" stroke="#fff" stroke-miterlimit="10" stroke-width="2"/></g></g></svg>