<svg id="ICONS" xmlns="http://www.w3.org/2000/svg" viewBox="0 0 120 120"><title>DialexaRoomIcons_White</title><g id="ROOM_ICONS" data-name="ROOM ICONS"><g id="Hyrule_FINAL" data-name="Hyrule FINAL"><path d="M48.16,35.27H14.76A2.83,2.83,0,0,0,11.7,37.8V81.4a34.91,34.91,0,0,0,9.85,24.14,35.38,35.38,0,0,0,26.61,11.27,35.39,35.39,0,0,0,26.68-11.34A34.89,34.89,0,0,0,84.62,81.4V37.8a2.83,2.83,0,0,0-3.06-2.53Z" fill="none" stroke="#fff" stroke-miterlimit="10" stroke-width="2"/><g id="Sword"><path d="M103.41,43.39a1.6,1.6,0,0,0,1.3-.44l4.38-4.37a2,2,0,0,0-.27-2.77L84.52,11.5a2,2,0,0,0-2.78-.27l-4.36,4.38a2,2,0,0,0,.27,2.77l24.29,24.3A2.38,2.38,0,0,0,103.41,43.39Z" fill="none" stroke="#fff" stroke-miterlimit="10" stroke-width="2" fill-rule="evenodd"/><path d="M82.79,23.52,71.09,35.19" fill="none" stroke="#fff" stroke-miterlimit="10" stroke-width="2" fill-rule="evenodd"/><path d="M84.62,49.69,96.81,37.55" fill="none" stroke="#fff" stroke-miterlimit="10" stroke-width="2" fill-rule="evenodd"/><path d="M13.57,92.53,7.44,98.64l-5,18.27a.62.62,0,0,0,.75.75l18.32-5,3.72-3.71" fill="none" stroke="#fff" stroke-miterlimit="10" stroke-width="2" fill-rule="evenodd"/><path d="M104.24,24.65l-8.56-8.57" fill="none" stroke="#fff" stroke-miterlimit="10" stroke-width="2" fill-rule="evenodd"/><path d="M100.16.6h12.11a0,0,0,0,1,0,0V22.35A5.27,5.27,0,0,1,107,27.61h-1.58a5.27,5.27,0,0,1-5.27-5.27V.6a0,0,0,0,1,0,0Z" transform="translate(171.35 99.19) rotate(-135)" fill="none" stroke="#fff" stroke-miterlimit="10" stroke-width="2"/><path d="M107.53,21.36,99,12.79" fill="none" stroke="#fff" stroke-miterlimit="10" stroke-width="2" fill-rule="evenodd"/><path d="M110.82,18.07,102.26,9.5" fill="none" stroke="#fff" stroke-miterlimit="10" stroke-width="2" fill-rule="evenodd"/><path d="M114.11,14.77l-8.56-8.56" fill="none" stroke="#fff" stroke-miterlimit="10" stroke-width="2" fill-rule="evenodd"/><path d="M18.38,101.73,2.58,117.49" fill="none" stroke="#fff" stroke-miterlimit="10" stroke-width="2" fill-rule="evenodd"/><path d="M89.79,30.53,84,36.29" fill="none" stroke="#fff" stroke-miterlimit="10" stroke-width="2" fill-rule="evenodd"/></g><path d="M36.35,68.94H60L48.61,51.76a.54.54,0,0,0-.9,0Z" fill="none" stroke="#fff" stroke-miterlimit="10" stroke-width="2"/><path d="M25.55,86.79H48.16L36.35,68.94,25.1,86A.54.54,0,0,0,25.55,86.79Z" fill="none" stroke="#fff" stroke-miterlimit="10" stroke-width="2"/><path d="M48.16,86.79H70.77a.54.54,0,0,0,.45-.84L60,68.94Z" fill="none" stroke="#fff" stroke-miterlimit="10" stroke-width="2"/></g></g></svg>