<svg id="ICONS" xmlns="http://www.w3.org/2000/svg" viewBox="0 0 120 120"><title>DialexaRoomIcons_White</title><g id="ROOM_ICONS" data-name="ROOM ICONS"><g id="King_s_Landing_FINAL" data-name="King&apos;s Landing FINAL"><polygon points="115.85 37.85 113.85 44.75 111.25 45.75 108.56 53.7 106.19 47.27 94.51 49.73 87.25 52.64 79.81 59.72 88.36 57.89 99.65 57.85 102.97 54.37 104.52 59.18 109.13 62.36 103.02 66.16 101.19 67.2 95.91 69.67 94.33 68.25 86.34 71.16 84.36 68.86 64.47 92.02 60.28 84.09 49 97.88 42.76 86.95 28.06 100.26 26.95 87.3 4.58 96.78 20.56 76.61 5.83 76.59 21.51 61.24 10.97 59.66 28.04 42.62 41.71 37.81 46.05 38.18 41.93 36.33 32.87 28.39 27.45 18.1 49.26 25.04 66.81 22.55 82.02 23.75 85.92 30.25 118 30.26 115.85 37.85" fill="none" stroke="#fff" stroke-miterlimit="10" stroke-width="2"/><polygon points="64.77 37.51 70.97 36.69 73.69 36.33 69.19 40.09 64.77 37.51" fill="none" stroke="#fff" stroke-miterlimit="10" stroke-width="2"/></g></g></svg>