<svg id="ICONS" xmlns="http://www.w3.org/2000/svg" viewBox="0 0 120 120"><title>DialexaRoomIcons_White</title><g id="ROOM_ICONS" data-name="ROOM ICONS"><g id="Metropolis_FINAL" data-name="Metropolis FINAL"><path d="M88.55,9.2v3.05a.73.73,0,0,1-.72.73H78.31a.66.66,0,0,0-.66.66s-.05,8.85-.15,9-4.69.22-6.16.4a.49.49,0,0,0-.43.49c0,2.29-.19,13.44-.2,13.48l-35.85.26a2.38,2.38,0,0,0-2.38,2.39v64.57" fill="none" stroke="#fff" stroke-miterlimit="10" stroke-width="2"/><path d="M47.27,30.85V20.55a2.53,2.53,0,0,0-.39-1.4,2.4,2.4,0,0,0-3-.86L9.67,33.56a2.39,2.39,0,0,0-1.42,2.18V107a2.39,2.39,0,0,0,2.39,2.39h99.92a.67.67,0,0,0,.66-.66V23.08a.5.5,0,0,0-.5-.5h-4.57a.66.66,0,0,1-.66-.65V13.37a.65.65,0,0,0-.65-.65H94a.72.72,0,0,1-.72-.72V9.08" fill="none" stroke="#fff" stroke-miterlimit="10" stroke-width="2"/><path d="M47.92,91.34H60.45a.66.66,0,0,1,.66.66v11.93a.66.66,0,0,1-.66.66H47.92a.65.65,0,0,1-.65-.65V92A.66.66,0,0,1,47.92,91.34Z" fill="none" stroke="#fff" stroke-miterlimit="10" stroke-width="2"/><line x1="47.27" y1="30.85" x2="47.27" y2="37.14" fill="none" stroke="#fff" stroke-miterlimit="10" stroke-width="2"/><rect x="16.01" y="44.98" width="11.09" height="5.69" rx="1" fill="none" stroke="#fff" stroke-miterlimit="10" stroke-width="2"/><rect x="16.01" y="55.25" width="11.09" height="5.69" rx="1" fill="none" stroke="#fff" stroke-miterlimit="10" stroke-width="2"/><rect x="16.01" y="65.52" width="11.09" height="5.69" rx="1" fill="none" stroke="#fff" stroke-miterlimit="10" stroke-width="2"/><rect x="16.01" y="75.79" width="11.09" height="5.69" rx="1" fill="none" stroke="#fff" stroke-miterlimit="10" stroke-width="2"/><rect x="16.01" y="86.06" width="11.09" height="5.69" rx="1" fill="none" stroke="#fff" stroke-miterlimit="10" stroke-width="2"/><rect x="40.81" y="59.8" width="9.29" height="8.04" rx="1" transform="translate(-18.36 109.27) rotate(-90)" fill="none" stroke="#fff" stroke-miterlimit="10" stroke-width="2"/><rect x="40.81" y="73.3" width="9.29" height="8.04" rx="1" transform="translate(-31.87 122.78) rotate(-90)" fill="none" stroke="#fff" stroke-miterlimit="10" stroke-width="2"/><path d="M93.32,12V6.76A.72.72,0,0,0,92.6,6H89.27a.72.72,0,0,0-.72.72V12" fill="none" stroke="#fff" stroke-miterlimit="10" stroke-width="2"/><line x1="70.71" y1="36.97" x2="70.69" y2="109.36" fill="none" stroke="#fff" stroke-miterlimit="10" stroke-width="2"/><line x1="32.48" y1="100.97" x2="32.48" y2="109.36" fill="none" stroke="#fff" stroke-miterlimit="10" stroke-width="2"/><rect x="40.9" y="46.33" width="9.29" height="8.04" rx="1" transform="translate(-4.8 95.89) rotate(-90)" fill="none" stroke="#fff" stroke-miterlimit="10" stroke-width="2"/><rect x="77.3" y="30.55" width="11.09" height="5.69" rx="1" fill="none" stroke="#fff" stroke-miterlimit="10" stroke-width="2"/><rect x="77.3" y="40.82" width="11.09" height="5.69" rx="1" fill="none" stroke="#fff" stroke-miterlimit="10" stroke-width="2"/><rect x="77.3" y="51.09" width="11.09" height="5.69" rx="1" fill="none" stroke="#fff" stroke-miterlimit="10" stroke-width="2"/><rect x="77.3" y="61.36" width="11.09" height="5.69" rx="1" fill="none" stroke="#fff" stroke-miterlimit="10" stroke-width="2"/><rect x="77.3" y="71.63" width="11.09" height="5.69" rx="1" fill="none" stroke="#fff" stroke-miterlimit="10" stroke-width="2"/><rect x="93.53" y="30.55" width="11.09" height="5.69" rx="1" fill="none" stroke="#fff" stroke-miterlimit="10" stroke-width="2"/><rect x="93.53" y="40.82" width="11.09" height="5.69" rx="1" fill="none" stroke="#fff" stroke-miterlimit="10" stroke-width="2"/><rect x="93.53" y="51.09" width="11.09" height="5.69" rx="1" fill="none" stroke="#fff" stroke-miterlimit="10" stroke-width="2"/><rect x="93.53" y="61.36" width="11.09" height="5.69" rx="1" fill="none" stroke="#fff" stroke-miterlimit="10" stroke-width="2"/><rect x="93.53" y="71.63" width="11.09" height="5.69" rx="1" fill="none" stroke="#fff" stroke-miterlimit="10" stroke-width="2"/><rect x="77.3" y="81.9" width="11.09" height="5.69" rx="1" fill="none" stroke="#fff" stroke-miterlimit="10" stroke-width="2"/><rect x="77.3" y="92.17" width="11.09" height="5.69" rx="1" fill="none" stroke="#fff" stroke-miterlimit="10" stroke-width="2"/><rect x="93.53" y="81.9" width="11.09" height="5.69" rx="1" fill="none" stroke="#fff" stroke-miterlimit="10" stroke-width="2"/><rect x="93.53" y="92.17" width="11.09" height="5.69" rx="1" fill="none" stroke="#fff" stroke-miterlimit="10" stroke-width="2"/><rect x="55.09" y="46.33" width="9.29" height="8.04" rx="1" transform="translate(9.39 110.08) rotate(-90)" fill="none" stroke="#fff" stroke-miterlimit="10" stroke-width="2"/><rect x="55.09" y="59.8" width="9.29" height="8.04" rx="1" transform="translate(-4.08 123.55) rotate(-90)" fill="none" stroke="#fff" stroke-miterlimit="10" stroke-width="2"/><rect x="55.09" y="73.27" width="9.29" height="8.04" rx="1" transform="translate(-17.55 137.02) rotate(-90)" fill="none" stroke="#fff" stroke-miterlimit="10" stroke-width="2"/></g></g></svg>