<svg id="ICONS" xmlns="http://www.w3.org/2000/svg" viewBox="0 0 120 120"><title>DialexaRoomIcons_White</title><g id="ROOM_ICONS" data-name="ROOM ICONS"><g id="Narnia_FINAL" data-name="Narnia FINAL"><g id="Lion"><path d="M84.4,27.72c-.93-4-2-7.92-3.31-11.85A4.16,4.16,0,1,0,76,15.2c-2.09,3.18-4,6.44-5.84,9.74C68.7,19.79,67,14.64,65.08,9.58a4.12,4.12,0,0,0,1.86-3.47,4.17,4.17,0,1,0-6.45,3.47c-1.94,5.06-3.64,10.21-5.08,15.36-1.83-3.32-3.79-6.6-5.89-9.79a4.17,4.17,0,1,0-7-3,4.2,4.2,0,0,0,2,3.58c-1.29,4-2.42,8-3.36,12" fill="none" stroke="#fff" stroke-miterlimit="10" stroke-width="2"/><path d="M48.12,39.58a3.3,3.3,0,1,1,3.3-3.29A3.29,3.29,0,0,1,48.12,39.58Z" fill="none" stroke="#fff" stroke-miterlimit="10" stroke-width="2"/><path d="M62.71,39.58A3.3,3.3,0,1,1,66,36.29,3.29,3.29,0,0,1,62.71,39.58Z" fill="none" stroke="#fff" stroke-miterlimit="10" stroke-width="2"/><path d="M77.3,39.58a3.3,3.3,0,1,1,3.29-3.29A3.29,3.29,0,0,1,77.3,39.58Z" fill="none" stroke="#fff" stroke-miterlimit="10" stroke-width="2"/><path d="M39.24,34.62s.37-.6-5.77,4.16c0,0-6.66,7.13-8.63,11.54A41,41,0,0,0,21.75,69.4l.1,1.81a.65.65,0,0,0,.8.6l1.94-.47a.64.64,0,0,1,.79.62,50.19,50.19,0,0,0,.77,8,41.66,41.66,0,0,0,3.32,10.61,31.29,31.29,0,0,0,7.66,10.23l1.45,1.26a.65.65,0,0,0,1-.19l.32-.61a.63.63,0,0,1,1.09-.08c.94,1.3,2.12,2.83,3.51,4.44,3.65,4.23,9.56,9.87,17,12.73l.55.21a.72.72,0,0,0,.46,0l.54-.21c7.45-2.86,13.37-8.5,17-12.73,1.39-1.61,2.56-3.14,3.5-4.44a.64.64,0,0,1,1.1.08l.32.61a.65.65,0,0,0,1,.19l1.45-1.26A31.27,31.27,0,0,0,95.1,90.58,42.07,42.07,0,0,0,98.43,80a51.21,51.21,0,0,0,.76-8,.65.65,0,0,1,.8-.62l1.94.47a.66.66,0,0,0,.8-.6l.1-1.81a41,41,0,0,0-3.09-19.08,30.79,30.79,0,0,0-7.63-10.47,32.21,32.21,0,0,0-2.71-2.09,33,33,0,0,0-3-1.79" fill="none" stroke="#fff" stroke-miterlimit="10" stroke-width="2"/></g><path d="M62.71,55.74H46.8a.41.41,0,0,0-.36.24l-4.28,11a.39.39,0,0,0,0,.3l7.18,15.83a.39.39,0,0,1-.06.41l-2.52,2.81a.39.39,0,0,0,0,.51L52.18,93a.38.38,0,0,0,.51.06l10-7,10,7a.38.38,0,0,0,.51-.06l5.42-6.24a.38.38,0,0,0,0-.51l-2.51-2.81a.37.37,0,0,1-.07-.41l7.18-15.83a.35.35,0,0,0,0-.3L79,56a.38.38,0,0,0-.36-.24H62.71" fill="none" stroke="#fff" stroke-miterlimit="10" stroke-width="2"/><path d="M57.51,63.7a3.26,3.26,0,1,1-6.08,1.65,3.16,3.16,0,0,1,.45-1.65Z" fill="none" stroke="#fff" stroke-miterlimit="10" stroke-width="2"/><path d="M67.91,63.7a3.26,3.26,0,1,0,5.64,0Z" fill="none" stroke="#fff" stroke-miterlimit="10" stroke-width="2"/><line x1="59.42" y1="96.99" x2="66" y2="96.99" fill="none" stroke="#fff" stroke-miterlimit="10" stroke-width="2"/><path d="M63,86.1,56.63,80a.38.38,0,0,1,.27-.65l11.62,0a.39.39,0,0,1,.28.65L63,86.1" fill="none" stroke="#fff" stroke-miterlimit="10" stroke-width="2"/><path d="M84.4,27.72l4.07,15.54a.76.76,0,0,1-.74,1H37.58a.76.76,0,0,1-.74-1l4.32-15.52" fill="none" stroke="#fff" stroke-miterlimit="10" stroke-width="2"/></g></g></svg>