<svg id="ICONS" xmlns="http://www.w3.org/2000/svg" viewBox="0 0 120 120"><title>DialexaRoomIcons_White</title><g id="ROOM_ICONS" data-name="ROOM ICONS"><g id="The_Shire_Black" data-name="The Shire Black"><path d="M117.76,64.79S96.88,87.28,75.39,76.91" fill="none" stroke="#fff" stroke-miterlimit="10" stroke-width="2"/><path d="M71.2,72.5s7.09-7.69,16.85-7c4.82.35,10.29,2.76,15.87,9.14" fill="none" stroke="#fff" stroke-miterlimit="10" stroke-width="2"/><circle cx="59.59" cy="49.44" r="9.5" fill="none" stroke="#fff" stroke-miterlimit="10" stroke-width="2"/><line x1="59.59" y1="52.04" x2="59.59" y2="77.13" fill="none" stroke="#fff" stroke-miterlimit="10" stroke-width="2"/><path d="M97.58,38.07c-3.31,0-6.15,1.48-7.34,3.57a7.46,7.46,0,0,0-3.84-1c-3.32,0-6,1.95-6,4.36s2.7,4.36,6,4.36a6.89,6.89,0,0,0,5-1.93,9.24,9.24,0,0,0,6.19,2.16c4.39,0,7.94-2.57,7.94-5.75S102,38.07,97.58,38.07Z" fill="none" stroke="#fff" stroke-miterlimit="10" stroke-width="2"/><path d="M2.09,13.39v92.44a.8.8,0,0,0,.89.77c22.42-2.1,40-22.33,40-47s-17.59-44.9-40-47A.79.79,0,0,0,2.09,13.39Z" fill="none" stroke="#fff" stroke-miterlimit="10" stroke-width="2"/><line x1="28.43" y1="24.44" x2="28.43" y2="94.45" fill="none" stroke="#fff" stroke-miterlimit="10" stroke-width="2"/><line x1="14.06" y1="15.18" x2="14.06" y2="103.1" fill="none" stroke="#fff" stroke-miterlimit="10" stroke-width="2"/><ellipse cx="21" cy="58.94" rx="7.43" ry="13.88" fill="none" stroke="#fff" stroke-miterlimit="10" stroke-width="2"/><path d="M42.8,64c9.07,1.45,21.61,4.87,32.59,12.9a55.15,55.15,0,0,1,18.38,23" fill="none" stroke="#fff" stroke-miterlimit="10" stroke-width="2"/><path d="M37.45,36.65a43.86,43.86,0,1,1-.66,47.15" fill="none" stroke="#fff" stroke-miterlimit="10" stroke-width="2"/></g></g></svg>