<svg id="ICONS" xmlns="http://www.w3.org/2000/svg" viewBox="0 0 120 120"><title>DialexaRoomIcons_White</title><g id="ROOM_ICONS" data-name="ROOM ICONS"><g id="Tatooine_FINAL" data-name="Tatooine FINAL"><rect x="1.61" y="66.3" width="90.06" height="38.3" rx="2" fill="none" stroke="#fff" stroke-miterlimit="10" stroke-width="2"/><path d="M31,76.64H52.75a9.53,9.53,0,0,1,9.53,9.53v5.59a9.53,9.53,0,0,1-9.53,9.53H31a0,0,0,0,1,0,0V76.64A0,0,0,0,1,31,76.64Z" transform="translate(-42.33 135.61) rotate(-90)" fill="none" stroke="#fff" stroke-miterlimit="10" stroke-width="2"/><line x1="81.31" y1="69.93" x2="81.31" y2="104.6" fill="none" stroke="#fff" stroke-miterlimit="10" stroke-width="2"/><line x1="12.64" y1="69.93" x2="12.64" y2="104.79" fill="none" stroke="#fff" stroke-miterlimit="10" stroke-width="2"/><circle cx="68" cy="17.36" r="11.02" fill="none" stroke="#fff" stroke-miterlimit="10" stroke-width="2"/><circle cx="88.91" cy="30.83" r="6.73" fill="none" stroke="#fff" stroke-miterlimit="10" stroke-width="2"/><rect x="98.87" y="88.97" width="19.51" height="15.63" rx="2" fill="none" stroke="#fff" stroke-miterlimit="10" stroke-width="2"/><line x1="108.63" y1="73.33" x2="108.63" y2="85.64" fill="none" stroke="#fff" stroke-miterlimit="10" stroke-width="2"/><line x1="108.63" y1="88.97" x2="108.63" y2="61.85" fill="none" stroke="#fff" stroke-miterlimit="10" stroke-width="2"/><line x1="102.3" y1="66.49" x2="114.97" y2="66.49" fill="none" stroke="#fff" stroke-miterlimit="10" stroke-width="2"/><line x1="102.3" y1="76.87" x2="114.97" y2="76.87" fill="none" stroke="#fff" stroke-miterlimit="10" stroke-width="2"/><path d="M12.64,69.93c0-1.18.06-2.34.17-3.49l0-.14a34.3,34.3,0,0,1,68.3,0,35.76,35.76,0,0,1,.18,3.61" fill="none" stroke="#fff" stroke-miterlimit="10" stroke-width="2"/></g></g></svg>