<?xml version="1.0" encoding="utf-8"?>
<!-- Generator: Adobe Illustrator 24.0.3, SVG Export Plug-In . SVG Version: 6.00 Build 0)  -->
<svg version="1.1" id="Layer_1" xmlns="http://www.w3.org/2000/svg" xmlns:xlink="http://www.w3.org/1999/xlink" x="0px" y="0px"
	 viewBox="0 0 412.5 203.3" style="enable-background:new 0 0 412.5 203.3;" xml:space="preserve">
<style type="text/css">
	.st0{fill:#FFFFFF;}
</style>
<title>the-pit</title>
<g id="Layer_2_1_">
	<g id="Layer_1-2">
		<circle class="st0" cx="39.8" cy="169" r="8.2"/>
		<circle class="st0" cx="34.3" cy="145.2" r="8.2"/>
		<circle class="st0" cx="57.5" cy="152.4" r="8.2"/>
		<circle class="st0" cx="56.8" cy="131.5" r="8.2"/>
		<circle class="st0" cx="65.1" cy="171.5" r="8.2"/>
		<circle class="st0" cx="85.7" cy="149" r="8.2"/>
		<circle class="st0" cx="114.7" cy="165" r="8.2"/>
		<circle class="st0" cx="34.3" cy="121.8" r="8.3"/>
		<circle class="st0" cx="155.6" cy="170.2" r="8.2"/>
		<circle class="st0" cx="80.7" cy="123.9" r="8.3"/>
		<circle class="st0" cx="136.2" cy="146" r="8.2"/>
		<circle class="st0" cx="128.2" cy="123.9" r="8.3"/>
		<circle class="st0" cx="108.7" cy="138.4" r="8.2"/>
		<circle class="st0" cx="61" cy="110.4" r="8.3"/>
		<circle class="st0" cx="89.8" cy="173.6" r="8.2"/>
		<circle class="st0" cx="102.5" cy="113.7" r="8.2"/>
		<circle class="st0" cx="153.8" cy="108.8" r="8.2"/>
		<circle class="st0" cx="157.4" cy="141.4" r="8.2"/>
		<circle class="st0" cx="196.8" cy="146" r="8.2"/>
		<circle class="st0" cx="196.3" cy="168.7" r="8.2"/>
		<circle class="st0" cx="175.2" cy="156.5" r="8.2"/>
		<circle class="st0" cx="178.3" cy="124.9" r="8.3"/>
		<circle class="st0" cx="245.8" cy="169.7" r="8.2"/>
		<circle class="st0" cx="219.1" cy="148.1" r="8.2"/>
		<circle class="st0" cx="220.8" cy="170.9" r="8.2"/>
		<circle class="st0" cx="264.3" cy="155.5" r="8.2"/>
		<circle class="st0" cx="240.9" cy="146.8" r="8.2"/>
		<circle class="st0" cx="360.4" cy="100.2" r="8.2"/>
		<circle class="st0" cx="282.7" cy="170" r="8.2"/>
		<circle class="st0" cx="176.9" cy="99.7" r="8.2"/>
		<circle class="st0" cx="283.8" cy="143.2" r="8.2"/>
		<circle class="st0" cx="309.1" cy="145.6" r="8.2"/>
		<circle class="st0" cx="331.8" cy="167.2" r="8.2"/>
		<circle class="st0" cx="356.8" cy="167.1" r="8.2"/>
		<circle class="st0" cx="336.3" cy="144.8" r="8.2"/>
		<circle class="st0" cx="320.6" cy="125.2" r="8.2"/>
		<circle class="st0" cx="348.8" cy="124.7" r="8.2"/>
		<circle class="st0" cx="377.3" cy="124.7" r="8.2"/>
		<circle class="st0" cx="363.6" cy="145" r="8.2"/>
		<circle class="st0" cx="378.6" cy="169.7" r="8.2"/>
		<circle class="st0" cx="306.3" cy="169.9" r="8.2"/>
		<path class="st0" d="M29,203.3h354.5c16,0,29-13,29-29v-62h-18v62c0,6.1-4.9,11-11,11H29c-6.1,0-11-4.9-11-11v-62H0v62
			C0,190.3,13,203.3,29,203.3z"/>
		<path class="st0" d="M197.2,87.2l41.6,3.2l8.6,9.3l-7.9-2.5c-2.4-0.8-5.1-0.6-7.4,0.5l-29.7,14.4c-5,2.4-7,8.4-4.6,13.4
			c2.4,5,8.4,7,13.4,4.6l0,0l26.1-12.7l35.5,11.2c1.3,0.4,2.7,0.5,4,0.4c3,1.3,13.2-5.5,15.4-7.7l31.1-30.7l55.3-9.5
			c3.5-0.6,6-3.9,5.4-7.5c-0.6-3.5-3.9-6-7.5-5.4c0,0-0.1,0-0.1,0l-54.7,9.4l-19-18.9l-18-54.4c-1.1-3.4-4.7-5.4-8.1-4.3
			c-3.4,1.1-5.4,4.7-4.3,8.1c0,0.1,0.1,0.2,0.1,0.3l17,51.5l-26.9,26.5l-11.7-12.6c-1.7-1.8-4.1-3-6.6-3.2l-45.5-3.5
			c-5.5-0.5-10.3,3.6-10.8,9.1c-0.5,5.5,3.6,10.3,9.1,10.8C197.1,87.2,197.2,87.2,197.2,87.2z"/>
		<path class="st0" d="M342.3,62.3c8-8,7.9-21-0.1-29c-8-8-21-7.9-29,0.1c-8,8-7.9,21,0.1,29C321.3,70.4,334.3,70.4,342.3,62.3
			C342.3,62.3,342.3,62.3,342.3,62.3z M335.9,61.6c-6.9,4.4-16.1,2.3-20.5-4.6c-1.3-2-2-4.2-2.3-6.6L335.9,61.6z"/>
	</g>
</g>
</svg>
