<svg id="ICONS" xmlns="http://www.w3.org/2000/svg" viewBox="0 0 120 120"><title>DialexaRoomIcons_White</title><g id="ROOM_ICONS" data-name="ROOM ICONS"><g id="War_Room_FINAL" data-name="War Room FINAL"><g id="Wheels"><circle cx="19.33" cy="81.53" r="8.6" fill="none" stroke="#fff" stroke-miterlimit="10" stroke-width="2"/><circle cx="45.42" cy="81.53" r="8.6" fill="none" stroke="#fff" stroke-miterlimit="10" stroke-width="2"/><circle cx="71.51" cy="81.53" r="8.6" fill="none" stroke="#fff" stroke-miterlimit="10" stroke-width="2"/><circle cx="97.6" cy="81.53" r="8.6" fill="none" stroke="#fff" stroke-miterlimit="10" stroke-width="2"/></g><rect x="2.04" y="63.97" width="112.85" height="35.12" rx="16.48" fill="none" stroke="#fff" stroke-miterlimit="10" stroke-width="2"/><path d="M77.94,50.39V34.16a9.76,9.76,0,0,0-9.74-9.74H48.73A9.76,9.76,0,0,0,39,34.16V50.39Z" fill="none" stroke="#fff" stroke-miterlimit="10" stroke-width="2"/><path d="M77.73,32.08h38.16a.91.91,0,0,1,.91.91v8.23a.92.92,0,0,1-.92.91H77.94" fill="none" stroke="#fff" stroke-miterlimit="10" stroke-width="2"/><path d="M25.88,50.39H91.05a1,1,0,0,1,1,1V64a0,0,0,0,1,0,0H24.87a0,0,0,0,1,0,0V51.4a1,1,0,0,1,1-1Z" fill="none" stroke="#fff" stroke-miterlimit="10" stroke-width="2"/></g></g></svg>