<svg id="Layer_1" data-name="Layer 1" xmlns="http://www.w3.org/2000/svg" viewBox="0 0 293.34 248.38"><defs><style>.cls-1{fill:#fff;}</style></defs><title>Underground</title><path class="cls-1" d="M146.67,248.38A124.38,124.38,0,0,1,25.78,152.69H3.5a3.5,3.5,0,0,1-3.5-3.5v-50a3.5,3.5,0,0,1,3.5-3.5H25.78a124.23,124.23,0,0,1,241.77,0h22.29a3.5,3.5,0,0,1,3.5,3.5v50a3.5,3.5,0,0,1-3.5,3.5H267.55a124.38,124.38,0,0,1-120.88,95.69ZM7,145.69H28.59A3.5,3.5,0,0,1,32,148.47c11.39,53.84,59.61,92.91,114.66,92.91s103.27-39.07,114.66-92.91a3.5,3.5,0,0,1,3.42-2.78h21.59v-43H264.75a3.5,3.5,0,0,1-3.42-2.77C249.94,46.08,201.72,7,146.67,7S43.4,46.08,32,99.92a3.5,3.5,0,0,1-3.42,2.77H7Zm139.67,52.69a74.63,74.63,0,0,1-69.38-47.95,3.5,3.5,0,0,1,3.27-4.74H212.78a3.5,3.5,0,0,1,3.27,4.74A74.63,74.63,0,0,1,146.67,198.38ZM85.84,152.69a67.16,67.16,0,0,0,121.66,0Zm126.94-50H80.56A3.5,3.5,0,0,1,77.29,98a74.17,74.17,0,0,1,138.76,0,3.5,3.5,0,0,1-3.27,4.74Zm-126.94-7H207.5a67.16,67.16,0,0,0-121.66,0Z"/></svg>