<svg id="ICONS" xmlns="http://www.w3.org/2000/svg" viewBox="0 0 120 120"><title>DialexaRoomIcons_White</title><g id="ROOM_ICONS" data-name="ROOM ICONS"><g id="Upside_Down_FINAL" data-name="Upside Down FINAL"><polygon points="67.06 83.12 75.07 89.83 73.25 79.54 83.08 82.91 77.85 73.64 88.31 73.64 80.3 67.12 90.13 63.64 80.3 60.36 88.31 53.95 77.85 53.95 83.08 44.63 73.25 47.96 75.07 37.65 67.06 44.38 65.24 34.07 60 43.14 54.76 34.07 52.95 44.38 44.93 37.65 46.75 47.96 36.91 44.63 42.15 53.95 31.69 53.95 39.7 60.42 29.87 63.87 39.7 67.19 31.69 73.64 42.15 73.64 36.91 82.91 46.75 79.43 44.93 89.79 52.95 83.09 54.76 93.4 60 84.36 65.24 93.42 67.06 83.12" fill="none" stroke="#fff" stroke-miterlimit="10" stroke-width="2"/><circle cx="60" cy="63.74" r="34.2" fill="none" stroke="#fff" stroke-miterlimit="10" stroke-width="2"/><path d="M25.38,109.06a43.36,43.36,0,0,1,1.69-35.92.37.37,0,0,0,0-.13L27,72.9a38.59,38.59,0,0,1-23.34-26,.55.55,0,0,1-.1-.48.49.49,0,0,1,.34-.34A52.26,52.26,0,0,1,40.07,35.89l.11,0,.08-.09a32.78,32.78,0,0,1,1.49-11.36C45.6,12.32,55.44,6.21,58.57,4.44A.56.56,0,0,1,59,4.19a.49.49,0,0,1,.43.23,51.24,51.24,0,0,1,16.88,20A49.07,49.07,0,0,1,80.05,36a.35.35,0,0,0,.09.1l.12,0a43.76,43.76,0,0,1,35.58,7.55.6.6,0,0,1,.37.32.54.54,0,0,1-.08.49,37.58,37.58,0,0,1-6.07,15.65A38.1,38.1,0,0,1,92.7,74a.37.37,0,0,0-.08.19v.07a44.44,44.44,0,0,1,3.73,36.1.49.49,0,0,1-.66.52A49.76,49.76,0,0,1,59.09,98l-.1,0-.11,0A37.67,37.67,0,0,1,26,109.55S25.79,109.64,25.38,109.06Z" fill="none" stroke="#fff" stroke-miterlimit="10" stroke-width="2"/></g></g></svg>