<svg id="ICONS" xmlns="http://www.w3.org/2000/svg" viewBox="0 0 120 120"><title>DialexaRoomIcons_White</title><g id="ROOM_ICONS" data-name="ROOM ICONS"><g id="Wakanda_FINAL" data-name="Wakanda FINAL"><path d="M60,102.94a.27.27,0,0,1-.54,0,256.23,256.23,0,0,0-5.18-26.4c-1.73-6.85-3.64-13.25-5.64-19.18a.13.13,0,0,1,0-.12,88.16,88.16,0,0,0,5.91-10.56,89.4,89.4,0,0,0,4.9-12.79.27.27,0,0,1,.52,0,89.4,89.4,0,0,0,4.9,12.79,87.51,87.51,0,0,0,5.88,10.51.31.31,0,0,1,0,.23c-2,5.91-3.9,12.29-5.61,19.12A253.77,253.77,0,0,0,60,102.94Z" fill="none" stroke="#fff" stroke-miterlimit="10" stroke-width="2"/><line x1="59.69" y1="53.41" x2="59.69" y2="69.41" fill="none" stroke="#fff" stroke-miterlimit="10" stroke-width="2"/><path d="M95,63.16,77.45,67c-.35.07-.7-.34-.71-.83l-.17-9.54-3.84-8.73c-.19-.45,0-1,.3-1L90.56,43c.34-.07.69.34.7.83l.17,9.54,3.84,8.73C95.47,62.56,95.32,63.08,95,63.16Z" fill="none" stroke="#fff" stroke-miterlimit="10" stroke-width="2"/><line x1="105.32" y1="46.92" x2="108.85" y2="58.39" fill="none" stroke="#fff" stroke-miterlimit="10" stroke-width="2"/><path d="M115.71,82.39a.21.21,0,0,1-.39.12,190.81,190.81,0,0,0-9.55-17.78C103,60.2,100.23,56,97.49,52.23a.09.09,0,0,1,0-.09A66.87,66.87,0,0,0,100.06,33a.21.21,0,0,1,.38-.12A66.33,66.33,0,0,0,106.77,41a68.16,68.16,0,0,0,6.54,6.23.16.16,0,0,1,.07.16c-.11,4.67-.07,9.67.21,14.94A192,192,0,0,0,115.71,82.39Z" fill="none" stroke="#fff" stroke-miterlimit="10" stroke-width="2"/><path d="M24.76,63.16,42.29,67c.34.07.7-.34.71-.83l.17-9.54L47,47.91c.2-.45,0-1-.29-1L29.18,43c-.34-.07-.7.34-.7.83l-.17,9.54-3.84,8.73C24.27,62.56,24.42,63.08,24.76,63.16Z" fill="none" stroke="#fff" stroke-miterlimit="10" stroke-width="2"/><line x1="14.42" y1="46.92" x2="10.89" y2="58.39" fill="none" stroke="#fff" stroke-miterlimit="10" stroke-width="2"/><path d="M6.15,62.32c.28-5.27.32-10.27.2-14.94a.19.19,0,0,1,.08-.16A67,67,0,0,0,13,41,65.52,65.52,0,0,0,19.3,32.9a.21.21,0,0,1,.38.12,65.59,65.59,0,0,0,.68,10.25,66.9,66.9,0,0,0,1.9,8.87.09.09,0,0,1,0,.09c-2.74,3.81-5.53,8-8.28,12.5A193.42,193.42,0,0,0,4.41,82.51.21.21,0,0,1,4,82.39,189.22,189.22,0,0,0,6.15,62.32Z" fill="none" stroke="#fff" stroke-miterlimit="10" stroke-width="2"/></g></g></svg>