{
	"accessors" : 
	[
		{
			"bufferView" : 2,
			"byteOffset" : 0,
			"componentType" : 5126,
			"count" : 9980,
			"max" : 
			[
				0.9075471758842468,
				0.2844520807266235,
				0.3392233550548553,
				1
			],
			"min" : 
			[
				0.006584956776350737,
				0.006584956776350737,
				0.006584956776350737,
				1
			],
			"name" : "accessor_color_m0-PolyPaper23_-4710126",
			"type" : "VEC4"
		},
		{
			"bufferView" : 2,
			"byteOffset" : 159680,
			"componentType" : 5126,
			"count" : 9920,
			"max" : 
			[
				0.9075471758842468,
				0.2844520807266235,
				0.3392233550548553,
				1
			],
			"min" : 
			[
				0.006584956776350737,
				0.006584956776350737,
				0.006584956776350737,
				1
			],
			"name" : "accessor_color_m1-PolyPaper23_-4712706",
			"type" : "VEC4"
		},
		{
			"bufferView" : 2,
			"byteOffset" : 318400,
			"componentType" : 5126,
			"count" : 9982,
			"max" : 
			[
				0.9075471758842468,
				0.2844520807266235,
				0.3392233550548553,
				1
			],
			"min" : 
			[
				0.006584956776350737,
				0.006584956776350737,
				0.006584956776350737,
				1
			],
			"name" : "accessor_color_m2-PolyPaper23_-4713406",
			"type" : "VEC4"
		},
		{
			"bufferView" : 2,
			"byteOffset" : 478112,
			"componentType" : 5126,
			"count" : 9954,
			"max" : 
			[
				0.9075471758842468,
				0.2844520807266235,
				0.3392233550548553,
				1
			],
			"min" : 
			[
				0.006584956776350737,
				0.006584956776350737,
				0.006584956776350737,
				1
			],
			"name" : "accessor_color_m3-PolyPaper23_-4713386",
			"type" : "VEC4"
		},
		{
			"bufferView" : 0,
			"byteOffset" : 0,
			"componentType" : 5123,
			"count" : 14580,
			"max" : 
			[
				9979
			],
			"min" : 
			[
				0
			],
			"name" : "accessor_indices_0_m0-PolyPaper23_-4710126",
			"type" : "SCALAR"
		},
		{
			"bufferView" : 0,
			"byteOffset" : 29160,
			"componentType" : 5123,
			"count" : 14496,
			"max" : 
			[
				9919
			],
			"min" : 
			[
				0
			],
			"name" : "accessor_indices_0_m1-PolyPaper23_-4712706",
			"type" : "SCALAR"
		},
		{
			"bufferView" : 0,
			"byteOffset" : 58152,
			"componentType" : 5123,
			"count" : 15024,
			"max" : 
			[
				9981
			],
			"min" : 
			[
				0
			],
			"name" : "accessor_indices_0_m2-PolyPaper23_-4713406",
			"type" : "SCALAR"
		},
		{
			"bufferView" : 0,
			"byteOffset" : 88200,
			"componentType" : 5123,
			"count" : 14730,
			"max" : 
			[
				9953
			],
			"min" : 
			[
				0
			],
			"name" : "accessor_indices_0_m3-PolyPaper23_-4713386",
			"type" : "SCALAR"
		},
		{
			"bufferView" : 1,
			"byteOffset" : 119760,
			"componentType" : 5126,
			"count" : 9980,
			"max" : 
			[
				1,
				1,
				0.9999999000000001
			],
			"min" : 
			[
				-1,
				-1,
				-0.9999999000000001
			],
			"name" : "accessor_normal_m0-PolyPaper23_-4710126",
			"type" : "VEC3"
		},
		{
			"bufferView" : 1,
			"byteOffset" : 358560,
			"componentType" : 5126,
			"count" : 9920,
			"max" : 
			[
				0.9999949,
				0.9999984,
				0.999994
			],
			"min" : 
			[
				-0.9999949,
				-0.9999984,
				-0.999994
			],
			"name" : "accessor_normal_m1-PolyPaper23_-4712706",
			"type" : "VEC3"
		},
		{
			"bufferView" : 1,
			"byteOffset" : 597384,
			"componentType" : 5126,
			"count" : 9982,
			"max" : 
			[
				1,
				1,
				1
			],
			"min" : 
			[
				-1,
				-1,
				-1
			],
			"name" : "accessor_normal_m2-PolyPaper23_-4713406",
			"type" : "VEC3"
		},
		{
			"bufferView" : 1,
			"byteOffset" : 836616,
			"componentType" : 5126,
			"count" : 9954,
			"max" : 
			[
				1,
				1,
				1
			],
			"min" : 
			[
				-1,
				-1,
				-1
			],
			"name" : "accessor_normal_m3-PolyPaper23_-4713386",
			"type" : "VEC3"
		},
		{
			"bufferView" : 1,
			"byteOffset" : 0,
			"componentType" : 5126,
			"count" : 9980,
			"max" : 
			[
				1.456681,
				2.549091,
				1.76819
			],
			"min" : 
			[
				-1.583298,
				1.261943,
				-0.386204
			],
			"name" : "accessor_position_m0-PolyPaper23_-4710126",
			"type" : "VEC3"
		},
		{
			"bufferView" : 1,
			"byteOffset" : 239520,
			"componentType" : 5126,
			"count" : 9920,
			"max" : 
			[
				1.463206,
				2.537337,
				1.72747
			],
			"min" : 
			[
				-1.596395,
				1.251868,
				-0.4513057
			],
			"name" : "accessor_position_m1-PolyPaper23_-4712706",
			"type" : "VEC3"
		},
		{
			"bufferView" : 1,
			"byteOffset" : 477600,
			"componentType" : 5126,
			"count" : 9982,
			"max" : 
			[
				1.410782,
				2.534659,
				1.756846
			],
			"min" : 
			[
				-1.776098,
				1.254739,
				-0.4757027
			],
			"name" : "accessor_position_m2-PolyPaper23_-4713406",
			"type" : "VEC3"
		},
		{
			"bufferView" : 1,
			"byteOffset" : 717168,
			"componentType" : 5126,
			"count" : 9954,
			"max" : 
			[
				1.458741,
				2.549444,
				1.788954
			],
			"min" : 
			[
				-1.684841,
				1.246152,
				-0.4705247
			],
			"name" : "accessor_position_m3-PolyPaper23_-4713386",
			"type" : "VEC3"
		}
	],
	"asset" : 
	{
		"copyright" : "Unknown",
		"generator" : "glTF 1-to-2 Upgrader for Google Blocks",
		"version" : "2.0"
	},
	"bufferViews" : 
	[
		{
			"buffer" : 0,
			"byteLength" : 117660,
			"byteOffset" : 0,
			"name" : "ushortBufferView",
			"target" : 34963
		},
		{
			"buffer" : 0,
			"byteLength" : 956064,
			"byteOffset" : 117660,
			"byteStride" : 12,
			"name" : "vec3BufferView",
			"target" : 34962
		},
		{
			"buffer" : 0,
			"byteLength" : 637376,
			"byteOffset" : 1073724,
			"byteStride" : 16,
			"name" : "vec4BufferView",
			"target" : 34962
		}
	],
	"buffers" : 
	[
		{
			"byteLength" : 1711100,
			"name" : "model",
			"uri" : "tie-model.bin"
		}
	],
	"materials" : 
	[
		{
			"alphaMode" : "OPAQUE",
			"doubleSided" : false,
			"name" : "BlocksPaper",
			"pbrMetallicRoughness" : 
			{
				"baseColorFactor" : 
				[
					1,
					1,
					1,
					1
				],
				"metallicFactor" : 0,
				"roughnessFactor" : 0.6
			}
		},
		{
			"alphaMode" : "BLEND",
			"doubleSided" : false,
			"name" : "BlocksGlass",
			"pbrMetallicRoughness" : 
			{
				"baseColorFactor" : 
				[
					0.2,
					0.2,
					1,
					0.3
				],
				"metallicFactor" : 1,
				"roughnessFactor" : 0.4
			}
		},
		{
			"alphaMode" : "OPAQUE",
			"doubleSided" : true,
			"name" : "BlocksGem",
			"pbrMetallicRoughness" : 
			{
				"baseColorFactor" : 
				[
					1,
					0.4,
					1,
					1
				],
				"metallicFactor" : 0,
				"roughnessFactor" : 0.1
			}
		}
	],
	"meshes" : 
	[
		{
			"name" : "mesh_m0-PolyPaper23_-4710126",
			"primitives" : 
			[
				{
					"attributes" : 
					{
						"COLOR_0" : 0,
						"NORMAL" : 8,
						"POSITION" : 12
					},
					"indices" : 4,
					"material" : 0,
					"mode" : 4
				}
			]
		},
		{
			"name" : "mesh_m1-PolyPaper23_-4712706",
			"primitives" : 
			[
				{
					"attributes" : 
					{
						"COLOR_0" : 1,
						"NORMAL" : 9,
						"POSITION" : 13
					},
					"indices" : 5,
					"material" : 0,
					"mode" : 4
				}
			]
		},
		{
			"name" : "mesh_m2-PolyPaper23_-4713406",
			"primitives" : 
			[
				{
					"attributes" : 
					{
						"COLOR_0" : 2,
						"NORMAL" : 10,
						"POSITION" : 14
					},
					"indices" : 6,
					"material" : 0,
					"mode" : 4
				}
			]
		},
		{
			"name" : "mesh_m3-PolyPaper23_-4713386",
			"primitives" : 
			[
				{
					"attributes" : 
					{
						"COLOR_0" : 3,
						"NORMAL" : 11,
						"POSITION" : 15
					},
					"indices" : 7,
					"material" : 0,
					"mode" : 4
				}
			]
		}
	],
	"nodes" : 
	[
		{
			"matrix" : 
			[
				1,
				0,
				0,
				0,
				0,
				1,
				0,
				0,
				0,
				0,
				1,
				0,
				0,
				0,
				0,
				1
			],
			"mesh" : 0,
			"name" : "node_MeshObject-1107677824-PolyPaper23"
		},
		{
			"matrix" : 
			[
				1,
				0,
				0,
				0,
				0,
				1,
				0,
				0,
				0,
				0,
				1,
				0,
				0,
				0,
				0,
				1
			],
			"mesh" : 2,
			"name" : "node_MeshObject-1299617024-PolyPaper23"
		},
		{
			"matrix" : 
			[
				1,
				0,
				0,
				0,
				0,
				1,
				0,
				0,
				0,
				0,
				1,
				0,
				0,
				0,
				0,
				1
			],
			"mesh" : 3,
			"name" : "node_MeshObject-1818337088-PolyPaper23"
		},
		{
			"matrix" : 
			[
				1,
				0,
				0,
				0,
				0,
				1,
				0,
				0,
				0,
				0,
				1,
				0,
				0,
				0,
				0,
				1
			],
			"mesh" : 1,
			"name" : "node_MeshObject-343605376-PolyPaper23"
		}
	],
	"scene" : 0,
	"scenes" : 
	[
		{
			"extras" : {},
			"name" : "defaultScene",
			"nodes" : 
			[
				0,
				3,
				1,
				2
			]
		}
	]
}